<!-- Generator: Adobe Illustrator 19.2.1, SVG Export Plug-In  -->
<svg version="1.1"
	 xmlns="http://www.w3.org/2000/svg" xmlns:xlink="http://www.w3.org/1999/xlink" xmlns:a="http://ns.adobe.com/AdobeSVGViewerExtensions/3.0/"
	 x="0px" y="0px" width="90px" height="90px" viewBox="0 0 90 90" style="enable-background:new 0 0 90 90;" xml:space="preserve">
<defs>
</defs>
<path d="M87.5,35H80V17.5c0-0.663-0.263-1.299-0.732-1.768l-15-15C63.799,0.264,63.163,0,62.5,0h-50C11.119,0,10,1.119,10,2.5V35
	H2.5C1.119,35,0,36.119,0,37.5v35C0,73.881,1.119,75,2.5,75H10v12.5c0,1.381,1.119,2.5,2.5,2.5h65c1.381,0,2.5-1.119,2.5-2.5V75h7.5
	c1.381,0,2.5-1.119,2.5-2.5v-35C90,36.119,88.881,35,87.5,35z M65,8.536L71.465,15H65V8.536z M15,5h45v15h15v15H15V5z M75,85H15V75
	h60V85z M85,70H5V40h80V70z"/>
<rect x="15" y="45" width="5" height="20"/>
<path d="M30,55.757l5.42,8.13C35.892,64.596,36.68,65,37.5,65c0.241,0,0.485-0.035,0.725-0.107C39.279,64.573,40,63.602,40,62.5V45
	h-5v9.243l-5.42-8.13c-0.611-0.918-1.75-1.323-2.805-1.006C25.721,45.427,25,46.398,25,47.5V65h5V55.757z"/>
<path d="M57.5,57.5v-5c0-4.136-3.364-7.5-7.5-7.5h-7.5v20H50C54.136,65,57.5,61.636,57.5,57.5z M47.5,50H50
	c1.378,0,2.5,1.121,2.5,2.5v5c0,1.379-1.122,2.5-2.5,2.5h-2.5V50z"/>
<path d="M75,57.5v-5c0-4.136-3.364-7.5-7.5-7.5H60v20h7.5C71.636,65,75,61.636,75,57.5z M65,50h2.5c1.378,0,2.5,1.121,2.5,2.5v5
	c0,1.379-1.122,2.5-2.5,2.5H65V50z"/>
</svg>