<!-- Generator: Adobe Illustrator 19.2.1, SVG Export Plug-In  -->
<svg version="1.1"
	 xmlns="http://www.w3.org/2000/svg" xmlns:xlink="http://www.w3.org/1999/xlink" xmlns:a="http://ns.adobe.com/AdobeSVGViewerExtensions/3.0/"
	 x="0px" y="0px" width="90px" height="90px" viewBox="0 0 90 90" style="enable-background:new 0 0 90 90;" xml:space="preserve">
<defs>
</defs>
<path d="M87.5,35H80V17.5c0-0.663-0.264-1.299-0.732-1.768l-15-15C63.799,0.263,63.163,0,62.5,0h-50C11.119,0,10,1.119,10,2.5V35
	H2.5C1.119,35,0,36.119,0,37.5v35C0,73.881,1.119,75,2.5,75H10v12.5c0,1.381,1.119,2.5,2.5,2.5h65c1.381,0,2.5-1.119,2.5-2.5V75h7.5
	c1.381,0,2.5-1.119,2.5-2.5v-35C90,36.119,88.881,35,87.5,35z M65,8.535L71.464,15H65V8.535z M15,5h45v15h15v15H15V5z M75,85H15V75
	h60V85z M85,70H5V40h80V70z"/>
<path d="M37.5,60h5v5h5v-5v-5v-2.5c0-4.136-3.364-7.5-7.5-7.5s-7.5,3.364-7.5,7.5V55v5v5h5V60z M37.5,52.5
	c0-1.378,1.121-2.5,2.5-2.5s2.5,1.122,2.5,2.5V55h-5V52.5z"/>
<rect x="52.5" y="45" width="5" height="20"/>
</svg>