<!-- Generator: Adobe Illustrator 19.2.1, SVG Export Plug-In  -->
<svg version="1.1"
	 xmlns="http://www.w3.org/2000/svg" xmlns:xlink="http://www.w3.org/1999/xlink" xmlns:a="http://ns.adobe.com/AdobeSVGViewerExtensions/3.0/"
	 x="0px" y="0px" width="83.808px" height="83.8px" viewBox="0 0 83.808 83.8" style="enable-background:new 0 0 83.808 83.8;"
	 xml:space="preserve">
<defs>
</defs>
<path d="M81.008,2.8c-1.8-1.8-4.3-2.8-6.8-2.8s-5,1-6.8,2.8l-56.8,56.7c-0.2,0.2-0.3,0.3-0.4,0.5l-10,20.9c-0.4,0.8-0.2,1.7,0.4,2.3
	c0.4,0.4,0.9,0.6,1.4,0.6c0.3,0,0.6-0.1,0.9-0.2l20.9-10c0.2-0.1,0.4-0.2,0.5-0.4l56.7-56.7c1.8-1.8,2.8-4.3,2.8-6.8
	S82.808,4.7,81.008,2.8z M14.908,60.9l47.2-47.2l8,8l-47.2,47.2L14.908,60.9z M12.608,64.3l6.9,6.9l-6.8,3.3l-3.3-3.3L12.608,64.3z
	 M7.508,74.9l1.3,1.3l-2.6,1.2C6.208,77.4,7.508,74.9,7.508,74.9z M78.108,13.7l-5.2,5.2l-8-8l5.2-5.2c1.1-1.1,2.5-1.7,4-1.7
	s2.9,0.6,4,1.7s1.7,2.5,1.7,4S79.208,12.6,78.108,13.7z"/>
</svg>