<!-- Generator: Adobe Illustrator 19.2.1, SVG Export Plug-In  -->
<svg version="1.1"
	 xmlns="http://www.w3.org/2000/svg" xmlns:xlink="http://www.w3.org/1999/xlink" xmlns:a="http://ns.adobe.com/AdobeSVGViewerExtensions/3.0/"
	 x="0px" y="0px" width="90px" height="90px" viewBox="0 0 90 90" style="enable-background:new 0 0 90 90;" xml:space="preserve">
<defs>
</defs>
<g>
	<path d="M87.5,35H80V17.5c0-0.663-0.264-1.299-0.732-1.768l-15-15C63.799,0.263,63.163,0,62.5,0h-50C11.119,0,10,1.119,10,2.5V35
		H2.5C1.119,35,0,36.119,0,37.5v35C0,73.881,1.119,75,2.5,75H10v12.5c0,1.381,1.119,2.5,2.5,2.5h65c1.381,0,2.5-1.119,2.5-2.5V75
		h7.5c1.381,0,2.5-1.119,2.5-2.5v-35C90,36.119,88.881,35,87.5,35z M65,8.535L71.464,15H65V8.535z M15,5h45v15h15v15H15V5z M75,85
		H15V75h60V85z M85,70H5V40h80V70z"/>
	<path d="M25,60h2.5c4.136,0,7.5-3.364,7.5-7.5S31.636,45,27.5,45h-5c-1.381,0-2.5,1.119-2.5,2.5V65h5V60z M25,50h2.5
		c1.379,0,2.5,1.122,2.5,2.5S28.879,55,27.5,55H25V50z"/>
	<path d="M52.5,57.5c0-2.757-2.243-5-5-5h-5c0-1.378,1.121-2.5,2.5-2.5h7.5v-5H45c-4.136,0-7.5,3.364-7.5,7.5c0,2.757,2.243,5,5,5h5
		c0,1.378-1.121,2.5-2.5,2.5h-7.5v5H45C49.136,65,52.5,61.636,52.5,57.5z"/>
	<path d="M70,57.5v-5c0-4.136-3.364-7.5-7.5-7.5H55v20h7.5C66.636,65,70,61.636,70,57.5z M60,50h2.5c1.379,0,2.5,1.122,2.5,2.5v5
		c0,1.378-1.121,2.5-2.5,2.5H60V50z"/>
</g>
</svg>