<!-- Generator: Adobe Illustrator 19.2.1, SVG Export Plug-In  -->
<svg version="1.1"
	 xmlns="http://www.w3.org/2000/svg" xmlns:xlink="http://www.w3.org/1999/xlink" xmlns:a="http://ns.adobe.com/AdobeSVGViewerExtensions/3.0/"
	 x="0px" y="0px" width="154px" height="115.5px" viewBox="0 0 154 115.5" style="enable-background:new 0 0 154 115.5;"
	 xml:space="preserve">
<defs>
</defs>
<g>
	<rect x="11.55" y="69.3" width="46.2" height="3.85"/>
	<rect x="11.55" y="77" width="65.45" height="3.85"/>
	<rect x="11.55" y="84.7" width="57.75" height="3.85"/>
	<rect x="11.55" y="92.4" width="61.6" height="3.85"/>
	<rect x="11.55" y="100.1" width="30.8" height="3.85"/>
	<path d="M3.85,15.4h146.299v96.25H3.85V15.4z M7.7,7.7l5.775-3.85v7.7L7.7,7.7z M19.25,3.85l5.775,3.85l-5.775,3.85V3.85z M0,115.5
		h154V0H0V115.5z"/>
	<polygon points="77,25.333 48.071,42.35 77,59.365 	"/>
	<polygon points="44.275,40.117 73.204,23.1 15.346,23.1 	"/>
	<polygon points="44.275,44.583 15.348,61.6 73.202,61.6 	"/>
	<polygon points="11.55,59.365 40.479,42.35 11.55,25.333 	"/>
	<polygon points="111.254,63.565 84.701,26.228 84.701,100.902 	"/>
	<polygon points="87.199,23.1 113.616,60.245 140.031,23.1 	"/>
	<polygon points="115.977,63.565 142.45,100.791 142.45,26.341 	"/>
	<polygon points="113.615,66.886 87.256,103.95 139.972,103.95 	"/>
</g>
</svg>